<?xml version="1.0" standalone="no"?>
<!DOCTYPE svg PUBLIC "-//W3C//DTD SVG 20010904//EN"
 "http://www.w3.org/TR/2001/REC-SVG-20010904/DTD/svg10.dtd">
<svg version="1.0" xmlns="http://www.w3.org/2000/svg"
 width="512.000000pt" height="512.000000pt" viewBox="0 0 512.000000 512.000000"
 preserveAspectRatio="xMidYMid meet">

<g transform="translate(0.000000,512.000000) scale(0.100000,-0.100000)"
fill="#000000" stroke="none">
<path d="M1114 3710 c-34 -14 -91 -88 -105 -138 -23 -80 -16 -171 18 -245 27
-55 37 -67 78 -87 41 -20 51 -21 85 -11 76 23 130 123 130 241 0 163 -102 282
-206 240z"/>
<path d="M3904 3702 c-150 -95 -132 -426 26 -473 34 -10 44 -9 85 11 41 20 51
32 78 87 54 117 39 256 -37 339 -50 55 -102 67 -152 36z"/>
<path d="M1965 2521 c-65 -39 -83 -107 -45 -169 42 -69 131 -79 189 -21 39 39
48 86 25 134 -32 69 -108 94 -169 56z"/>
<path d="M3034 2521 c-41 -25 -68 -83 -60 -127 15 -75 105 -123 172 -90 67 32
92 111 54 173 -36 60 -108 79 -166 44z"/>
<path d="M2496 779 c-88 -36 -177 -51 -343 -57 l-163 -7 24 -51 c50 -109 127
-141 316 -135 69 3 172 4 230 4 58 0 161 -1 230 -4 189 -6 266 26 316 135 l24
51 -158 6 c-171 7 -244 19 -341 55 -75 28 -73 28 -135 3z"/>
</g>
</svg>
